<?xml version="1.0" encoding="UTF-8"?>
<!DOCTYPE svg PUBLIC "-//W3C//DTD SVG 1.1//EN" "http://www.w3.org/Graphics/SVG/1.1/DTD/svg11.dtd">
<!-- Creator: CorelDRAW 2021 (64-Bit) -->
<svg xmlns="http://www.w3.org/2000/svg" xml:space="preserve" width="9.461in" height="9in" version="1.1" style="shape-rendering:geometricPrecision; text-rendering:geometricPrecision; image-rendering:optimizeQuality; fill-rule:evenodd; clip-rule:evenodd"
viewBox="0 0 9461 9000"
 xmlns:xlink="http://www.w3.org/1999/xlink"
 xmlns:xodm="http://www.corel.com/coreldraw/odm/2003">
 <defs>
  <style type="text/css">
   <![CDATA[
    .str1 {stroke:#EC268F;stroke-width:0.02;stroke-miterlimit:10}
    .str0 {stroke:#E60D2E;stroke-width:111.11;stroke-miterlimit:10}
    .fil1 {fill:none;fill-rule:nonzero}
    .fil0 {fill:#E60D2E;fill-rule:nonzero}
   ]]>
  </style>
 </defs>
 <g id="Layer_x0020_1">
  <metadata id="CorelCorpID_0Corel-Layer"/>
  <g id="_1474106351744">
   <path class="fil0 str0" d="M8667.7 1080.48c0,1306.31 -581.19,1213.35 -785.8,1140.17 -210.94,-345.05 -837.67,-486.08 -1509.46,-331.06 -34.23,7.9 -67.18,16.58 -99.62,25.55 -212.15,-132.11 -514.76,-494.87 316.37,-1325.99 0,0 -1345.2,414.67 -1174.24,1171.75 11.2,41.2 145.98,496.57 643.63,571.5 0,0 -279.12,43.08 -583.17,-20.5 -83.49,81.75 -211.22,232.27 -282.5,327.65 -88.7,119.72 -183.44,264.35 -277.83,438.36 -20.43,37.68 -41.85,77.03 -63.9,117.67 11.74,-21.6 23.31,-42.94 34.61,-63.73 -44.37,77.82 -89.87,161.24 -134.02,248.63 0,0 -36.33,-262.08 145.87,-625.27 -92.46,34.09 -159.71,57.71 -330.06,117.06 -358.96,125.06 -561.51,198.07 -691.31,291.57 -366.87,-177.85 -923.63,-621.95 -124.4,-1499.29 710.5,96.64 909,-658.06 909,-658.06 0,0 -779.01,-112.15 -962.6,590.03 -436.32,352.2 -965.8,971.76 -441.5,1644.2 91.21,112.04 419.46,461.21 925.88,401.44 0,0 -164.72,80.55 -397.37,115.46 -139.06,20.89 -253.48,120.51 -291.84,255.77 -143.88,507.54 -464.13,1641.15 -464.13,1641.15 -11.2,50.56 -26.31,108.69 -47.69,177.5 -0.5,1.7 -1.06,3.49 -1.57,5.2 -1.08,3.48 -1.94,6.54 -3.06,10.09 -0.22,0.69 -0.5,1.17 -0.7,1.85 -3.29,10.79 -7.54,22.45 -11.13,33.48l-3.38 11.99 -0.44 -0.5c-15.04,45.44 -31.88,92.46 -52.95,143.34 -325.1,784.72 -369.95,1322.85 -639,1614.32 -191.03,206.92 -308.34,413.78 -220.04,520.41 -608.46,57.21 -1137.72,139.11 -1549.09,238.63l7185.45 0c-706.17,-170.85 -1759.79,-289.79 -2965.42,-320.78 6.3,-14.91 11.03,-30.67 12.67,-47.57 12.74,-133.56 20.43,-340.6 -19.63,-547.62 -39.46,-203.76 -58.89,-399.44 10.25,-547.09 -0.21,-0.16 -0.54,-0.39 -0.54,-0.39 0,0 223.33,-452.33 380.3,-620.46l-76.13 394.39c275.59,-70.84 584.13,-246.67 743.52,-345.15l556.92 -394.74 -367.5 443.87c89.37,161.56 174.98,453.56 -204.26,654.76 -549.3,291.5 -784.72,134.52 -840.79,426.02 -56.04,291.46 100.9,459.65 302.7,392.36 201.77,-67.28 369.95,-134.51 582.96,-369.94 70.98,-78.48 154.44,-144.48 234.18,-197.65 307.64,-205.1 571.64,-470.48 754.98,-791.58 112.08,-196.26 205.29,-411.3 221.59,-602.68 27.78,-326.47 164.16,-750.6 263.92,-1026.12 -812.98,134.02 -1059.89,-442.46 -1059.89,-442.46 212.51,164.52 402.72,246.78 564.56,282.04 431.68,71.51 697.91,-144.34 816.15,-275.78 56.89,-63.26 96.39,-141 105.7,-225.57l0.32 -2.98c11.03,-103.26 -38.43,-204.02 -127.8,-256.89 -122.39,-72.4 -323.33,-114.2 -607.82,64.37 0,0 269.87,-375.26 725.91,-224.79 -11.81,-54.15 -27.9,-107.98 -49.53,-160.11 -140.03,-337.32 121.05,-409.19 437.02,-672.37 -185.47,-76.85 -261.4,-203.94 -261.4,-203.94 389.34,166.9 816.21,-32.63 822.76,-35.72 702.93,-396.34 26.33,-1675.8 26.33,-1675.8zm-5938.69 6537.71c0,-437.23 695.06,-1266.83 695.06,-1266.83 0,0 299.99,-499.37 603.53,-632.66 -41.18,-260.61 113.91,-659.05 113.91,-659.05 -20.54,122.81 -17.26,252.33 -6.73,361.83 6.8,86.76 20.14,172.14 41.17,255.56l0 0c-2.24,-9.57 -4.38,-19.15 -6.59,-28.7 2.74,12.72 4.94,22.41 6.52,28.91 -172.83,468 -264.26,808.6 -469.04,1012.86 -280.87,280.07 -416.13,566.24 -24.57,593.63 391.57,27.44 467.14,-171.41 485.21,-608.26 5.48,-132.42 76.43,-298.22 172.42,-465.02 -1.04,-5.59 -2.42,-11.49 -3.49,-17.11 51.84,-102.64 140.96,-249.13 275.98,-374.5 0,0 -191.66,342.45 -254.63,646.15 57.74,483.48 -34.51,814.68 -229.31,1018.65 -190.29,199.24 -120.43,455.77 -57.18,598.4 -505.61,0.43 -991.54,16.22 -1444.98,45 82.18,-101.96 102.72,-270.03 102.72,-508.87z"/>
   <path class="fil1 str1" d="M8667.7 1080.48c0,1306.31 -581.19,1213.35 -785.8,1140.17 -210.94,-345.05 -837.67,-486.08 -1509.46,-331.06 -34.23,7.9 -67.18,16.58 -99.62,25.55 -212.15,-132.11 -514.76,-494.87 316.37,-1325.99 0,0 -1345.2,414.67 -1174.24,1171.75 11.2,41.2 145.98,496.57 643.63,571.5 0,0 -279.12,43.08 -583.17,-20.5 -83.49,81.75 -211.22,232.27 -282.5,327.65 -88.7,119.72 -183.44,264.35 -277.83,438.36 -20.43,37.68 -41.85,77.03 -63.9,117.67 11.74,-21.6 23.31,-42.94 34.61,-63.73 -44.37,77.82 -89.87,161.24 -134.02,248.63 0,0 -36.33,-262.08 145.87,-625.27 -92.46,34.09 -159.71,57.71 -330.06,117.06 -358.96,125.06 -561.51,198.07 -691.31,291.57 -366.87,-177.85 -923.63,-621.95 -124.4,-1499.29 710.5,96.64 909,-658.06 909,-658.06 0,0 -779.01,-112.15 -962.6,590.03 -436.32,352.2 -965.8,971.76 -441.5,1644.2 91.21,112.04 419.46,461.21 925.88,401.44 0,0 -164.72,80.55 -397.37,115.46 -139.06,20.89 -253.48,120.51 -291.84,255.77 -143.88,507.54 -464.13,1641.15 -464.13,1641.15 -11.2,50.56 -26.31,108.69 -47.69,177.5 -0.5,1.7 -1.06,3.49 -1.57,5.2 -1.08,3.48 -1.94,6.54 -3.06,10.09 -0.22,0.69 -0.5,1.17 -0.7,1.85 -3.29,10.79 -7.54,22.45 -11.13,33.48l-3.38 11.99 -0.44 -0.5c-15.04,45.44 -31.88,92.46 -52.95,143.34 -325.1,784.72 -369.95,1322.85 -639,1614.32 -191.03,206.92 -308.34,413.78 -220.04,520.41 -608.46,57.21 -1137.72,139.11 -1549.09,238.63l7185.45 0c-706.17,-170.85 -1759.79,-289.79 -2965.42,-320.78 6.3,-14.91 11.03,-30.67 12.67,-47.57 12.74,-133.56 20.43,-340.6 -19.63,-547.62 -39.46,-203.76 -58.89,-399.44 10.25,-547.09 -0.21,-0.16 -0.54,-0.39 -0.54,-0.39 0,0 223.33,-452.33 380.3,-620.46l-76.13 394.39c275.59,-70.84 584.13,-246.67 743.52,-345.15l556.92 -394.74 -367.5 443.87c89.37,161.56 174.98,453.56 -204.26,654.76 -549.3,291.5 -784.72,134.52 -840.79,426.02 -56.04,291.46 100.9,459.65 302.7,392.36 201.77,-67.28 369.95,-134.51 582.96,-369.94 70.98,-78.48 154.44,-144.48 234.18,-197.65 307.64,-205.1 571.64,-470.48 754.98,-791.58 112.08,-196.26 205.29,-411.3 221.59,-602.68 27.78,-326.47 164.16,-750.6 263.92,-1026.12 -812.98,134.02 -1059.89,-442.46 -1059.89,-442.46 212.51,164.52 402.72,246.78 564.56,282.04 431.68,71.51 697.91,-144.34 816.15,-275.78 56.89,-63.26 96.39,-141 105.7,-225.57l0.32 -2.98c11.03,-103.26 -38.43,-204.02 -127.8,-256.89 -122.39,-72.4 -323.33,-114.2 -607.82,64.37 0,0 269.87,-375.26 725.91,-224.79 -11.81,-54.15 -27.9,-107.98 -49.53,-160.11 -140.03,-337.32 121.05,-409.19 437.02,-672.37 -185.47,-76.85 -261.4,-203.94 -261.4,-203.94 389.34,166.9 816.21,-32.63 822.76,-35.72 702.93,-396.34 26.33,-1675.8 26.33,-1675.8zm-5938.69 6537.71c0,-437.23 695.06,-1266.83 695.06,-1266.83 0,0 299.99,-499.37 603.53,-632.66 -41.18,-260.61 113.91,-659.05 113.91,-659.05 -20.54,122.81 -17.26,252.33 -6.73,361.83 6.8,86.76 20.14,172.14 41.17,255.56l0 0c-2.24,-9.57 -4.38,-19.15 -6.59,-28.7 2.74,12.72 4.94,22.41 6.52,28.91 -172.83,468 -264.26,808.6 -469.04,1012.86 -280.87,280.07 -416.13,566.24 -24.57,593.63 391.57,27.44 467.14,-171.41 485.21,-608.26 5.48,-132.42 76.43,-298.22 172.42,-465.02 -1.04,-5.59 -2.42,-11.49 -3.49,-17.11 51.84,-102.64 140.96,-249.13 275.98,-374.5 0,0 -191.66,342.45 -254.63,646.15 57.74,483.48 -34.51,814.68 -229.31,1018.65 -190.29,199.24 -120.43,455.77 -57.18,598.4 -505.61,0.43 -991.54,16.22 -1444.98,45 82.18,-101.96 102.72,-270.03 102.72,-508.87z"/>
  </g>
 </g>
</svg>
